<svg width="28px" height="28px" viewBox="0 0 28 28" version="1.1" xmlns="http://www.w3.org/2000/svg" xmlns:xlink="http://www.w3.org/1999/xlink">
  <!-- Generator: Sketch 44.1 (41455) - http://www.bohemiancoding.com/sketch -->
  <desc>Created with Sketch.</desc>
  <defs></defs>
  <g id="Web-Flow" stroke="none" stroke-width="1" fill="none" fill-rule="evenodd">
    <g id="View-Order---Ongoing-Order---Contacts---Desktop" transform="translate(-51.000000, -1072.000000)" stroke="#fff">
      <g id="Timeline" transform="translate(20.000000, 403.000000)">
        <g transform="translate(20.000000, 61.000000)" id="Disbursement-Complete">
          <g transform="translate(0.000000, 595.000000)">
            <g id="Group" transform="translate(12.000000, 14.000000)">
              <polyline id="Shape" points="11.25 18.6923077 0 18.6923077 0 0 25.9615385 0 25.9615385 11.3853147"></polyline>
              <circle id="Oval" stroke-linecap="square" cx="12.9807692" cy="9.86538462" r="2.59615385"></circle>
              <path d="M21.8076923,9.34615385 L21.8076923,6.67582418 C19.8534965,6.67582418 18.4090909,5.16263736 18.4090909,3.11538462 L6.51398601,3.11538462 C6.51398601,5.16263736 5.06958042,6.67582418 3.11538462,6.67582418 L3.11538462,12.0164835 C5.06958042,12.0164835 6.51398601,13.5296703 6.51398601,15.5769231 L10.8472028,15.5769231" id="Shape"></path>
              <path d="M25.0839653,18.6923077 C25.6105092,19.0038462 25.9615385,19.3932692 25.9615385,19.8605769 C25.9615385,20.9509615 24.0308776,21.8076923 21.5736728,21.8076923 C20.9593716,21.8076923 20.2573131,21.7298077 19.7307692,21.6519231" id="Shape"></path>
              <path d="M25.0839653,15.5769231 C25.6105092,15.8884615 25.9615385,16.2778846 25.9615385,16.7451923 C25.9615385,17.8355769 24.0308776,18.6923077 21.5736728,18.6923077 C20.9593716,18.6923077 20.2573131,18.6144231 19.7307692,18.5365385" id="Shape"></path>
              <path d="M25.0839653,13.5 C25.6105092,13.8115385 25.9615385,14.2009615 25.9615385,14.6682692 C25.9615385,15.7586538 24.0308776,16.6153846 21.5736728,16.6153846 C20.9593716,16.6153846 20.2573131,16.5375 19.7307692,16.4596154" id="Shape"></path>
              <path d="M17.6538462,13.5 C17.7576923,13.1005917 18.0692308,12.7810651 18.6923077,12.4615385" id="Shape"></path>
              <ellipse id="Oval" stroke-linecap="square" cx="21.8076923" cy="11.4230769" rx="4.15384615" ry="2.07692308"></ellipse>
              <path d="M18.8169231,22.8461538 C19.3984615,23.1576923 19.7307692,23.625 19.7307692,24.0144231 C19.7307692,25.1048077 17.9030769,25.9615385 15.5769231,25.9615385 C13.2507692,25.9615385 11.4230769,25.1048077 11.4230769,24.0144231 C11.4230769,23.5471154 11.7553846,23.1576923 12.2538462,22.8461538" id="Shape"></path>
              <path d="M18.9,19.7307692 C19.3984615,20.0423077 19.7307692,20.4317308 19.7307692,20.8990385 C19.7307692,21.9894231 17.9030769,22.8461538 15.5769231,22.8461538 C13.2507692,22.8461538 11.4230769,21.9894231 11.4230769,20.8990385 C11.4230769,20.4317308 11.7553846,20.0423077 12.2538462,19.7307692" id="Shape"></path>
              <path d="M18.9,17.6538462 C19.3984615,17.9653846 19.7307692,18.3548077 19.7307692,18.8221154 C19.7307692,19.9125 17.9030769,20.7692308 15.5769231,20.7692308 C13.2507692,20.7692308 11.4230769,19.9125 11.4230769,18.8221154 C11.4230769,18.4326923 11.6723077,17.9653846 12.1707692,17.6538462" id="Shape"></path>
              <ellipse id="Oval" stroke-linecap="square" cx="15.5769231" cy="15.5769231" rx="4.15384615" ry="2.07692308"></ellipse>
            </g>
          </g>
        </g>
      </g>
    </g>
  </g>
</svg>
